<mxfile host="Electron" agent="Mozilla/5.0 (X11; Linux x86_64) AppleWebKit/537.36 (KHTML, like Gecko) draw.io/27.0.9 Chrome/134.0.6998.205 Electron/35.4.0 Safari/537.36" version="27.0.9">
  <diagram name="Page-1" id="uXslXqzxeof80ooJVnR5">
    <mxGraphModel dx="1246" dy="1485" grid="1" gridSize="10" guides="1" tooltips="1" connect="1" arrows="1" fold="1" page="1" pageScale="1" pageWidth="827" pageHeight="1169" math="1" shadow="0">
      <root>
        <mxCell id="0" />
        <mxCell id="1" parent="0" />
        <mxCell id="y_eT4wmRkjMdvx0cKuVC-12" value="+" style="ellipse;whiteSpace=wrap;html=1;aspect=fixed;" parent="1" vertex="1">
          <mxGeometry x="122" y="-12" width="14" height="14" as="geometry" />
        </mxCell>
        <mxCell id="y_eT4wmRkjMdvx0cKuVC-13" value="" style="endArrow=classic;html=1;rounded=0;entryX=0;entryY=0.5;entryDx=0;entryDy=0;exitX=0.5;exitY=0;exitDx=0;exitDy=0;" parent="1" source="yURfG57xcYRF41rsmX7A-30" target="y_eT4wmRkjMdvx0cKuVC-12" edge="1">
          <mxGeometry width="50" height="50" relative="1" as="geometry">
            <mxPoint x="91" y="17" as="sourcePoint" />
            <mxPoint x="158" y="-3" as="targetPoint" />
            <Array as="points">
              <mxPoint x="55" y="-5" />
            </Array>
          </mxGeometry>
        </mxCell>
        <mxCell id="y_eT4wmRkjMdvx0cKuVC-14" value="" style="endArrow=classic;html=1;rounded=0;entryX=1;entryY=0.5;entryDx=0;entryDy=0;" parent="1" target="y_eT4wmRkjMdvx0cKuVC-12" edge="1">
          <mxGeometry width="50" height="50" relative="1" as="geometry">
            <mxPoint x="206" y="40" as="sourcePoint" />
            <mxPoint x="141" y="7" as="targetPoint" />
            <Array as="points">
              <mxPoint x="206" y="20" />
              <mxPoint x="206" y="-5" />
              <mxPoint x="193" y="-5" />
            </Array>
          </mxGeometry>
        </mxCell>
        <mxCell id="y_eT4wmRkjMdvx0cKuVC-16" value="" style="endArrow=classic;html=1;rounded=0;" parent="1" edge="1">
          <mxGeometry width="50" height="50" relative="1" as="geometry">
            <mxPoint x="128.89999999999998" y="-12" as="sourcePoint" />
            <mxPoint x="128.95999999999998" y="-22" as="targetPoint" />
          </mxGeometry>
        </mxCell>
        <mxCell id="y_eT4wmRkjMdvx0cKuVC-25" value="$$pc_L$$" style="text;html=1;align=center;verticalAlign=middle;whiteSpace=wrap;rounded=0;" parent="1" vertex="1">
          <mxGeometry x="87" y="-20" width="20" height="13" as="geometry" />
        </mxCell>
        <mxCell id="y_eT4wmRkjMdvx0cKuVC-26" value="$$pc_R$$" style="text;html=1;align=center;verticalAlign=middle;whiteSpace=wrap;rounded=0;" parent="1" vertex="1">
          <mxGeometry x="156" y="-20" width="20" height="13" as="geometry" />
        </mxCell>
        <mxCell id="yURfG57xcYRF41rsmX7A-2" value="" style="rounded=0;whiteSpace=wrap;html=1;" parent="1" vertex="1">
          <mxGeometry x="15" y="40" width="80" height="50" as="geometry" />
        </mxCell>
        <mxCell id="yURfG57xcYRF41rsmX7A-4" value="" style="endArrow=classic;html=1;rounded=0;entryX=0.25;entryY=1;entryDx=0;entryDy=0;" parent="1" edge="1">
          <mxGeometry width="50" height="50" relative="1" as="geometry">
            <mxPoint x="25" y="130" as="sourcePoint" />
            <mxPoint x="25" y="90" as="targetPoint" />
          </mxGeometry>
        </mxCell>
        <mxCell id="yURfG57xcYRF41rsmX7A-5" value="" style="rounded=0;whiteSpace=wrap;html=1;" parent="1" vertex="1">
          <mxGeometry x="166" y="40" width="80" height="50" as="geometry" />
        </mxCell>
        <mxCell id="yURfG57xcYRF41rsmX7A-7" value="mem_rdata" style="text;html=1;align=center;verticalAlign=middle;whiteSpace=wrap;rounded=0;" parent="1" vertex="1">
          <mxGeometry x="-14" y="128" width="70" height="18" as="geometry" />
        </mxCell>
        <mxCell id="yURfG57xcYRF41rsmX7A-12" value="" style="endArrow=classic;html=1;rounded=0;entryX=0.25;entryY=1;entryDx=0;entryDy=0;" parent="1" target="gvCiqMcnpfcGYAjsrZoF-2" edge="1">
          <mxGeometry width="50" height="50" relative="1" as="geometry">
            <mxPoint x="25" y="123" as="sourcePoint" />
            <mxPoint x="140" y="107" as="targetPoint" />
            <Array as="points">
              <mxPoint x="165" y="123" />
            </Array>
          </mxGeometry>
        </mxCell>
        <mxCell id="yURfG57xcYRF41rsmX7A-13" value="" style="endArrow=classic;html=1;rounded=0;exitX=0.5;exitY=0;exitDx=0;exitDy=0;" parent="1" edge="1">
          <mxGeometry width="50" height="50" relative="1" as="geometry">
            <mxPoint x="175.5" y="101" as="sourcePoint" />
            <mxPoint x="175" y="90" as="targetPoint" />
            <Array as="points" />
          </mxGeometry>
        </mxCell>
        <mxCell id="yURfG57xcYRF41rsmX7A-15" value="" style="endArrow=classic;html=1;rounded=0;entryX=0.625;entryY=1;entryDx=0;entryDy=0;entryPerimeter=0;" parent="1" edge="1">
          <mxGeometry width="50" height="50" relative="1" as="geometry">
            <mxPoint x="55" y="153" as="sourcePoint" />
            <mxPoint x="55" y="90" as="targetPoint" />
          </mxGeometry>
        </mxCell>
        <mxCell id="yURfG57xcYRF41rsmX7A-17" value="interrupt" style="text;html=1;align=center;verticalAlign=middle;whiteSpace=wrap;rounded=0;" parent="1" vertex="1">
          <mxGeometry x="32" y="150" width="54" height="15" as="geometry" />
        </mxCell>
        <mxCell id="yURfG57xcYRF41rsmX7A-18" value="" style="endArrow=classic;html=1;rounded=0;entryX=0.25;entryY=1;entryDx=0;entryDy=0;" parent="1" target="gvCiqMcnpfcGYAjsrZoF-5" edge="1">
          <mxGeometry width="50" height="50" relative="1" as="geometry">
            <mxPoint x="55" y="140" as="sourcePoint" />
            <mxPoint x="140" y="120" as="targetPoint" />
            <Array as="points">
              <mxPoint x="198" y="140" />
            </Array>
          </mxGeometry>
        </mxCell>
        <mxCell id="yURfG57xcYRF41rsmX7A-21" value="" style="endArrow=classic;html=1;rounded=0;entryX=0.25;entryY=1;entryDx=0;entryDy=0;" parent="1" edge="1">
          <mxGeometry width="50" height="50" relative="1" as="geometry">
            <mxPoint x="85" y="170" as="sourcePoint" />
            <mxPoint x="85" y="90" as="targetPoint" />
          </mxGeometry>
        </mxCell>
        <mxCell id="yURfG57xcYRF41rsmX7A-24" value="" style="endArrow=classic;html=1;rounded=0;exitX=0.5;exitY=0;exitDx=0;exitDy=0;entryX=0.526;entryY=1.007;entryDx=0;entryDy=0;entryPerimeter=0;" parent="1" source="gvCiqMcnpfcGYAjsrZoF-5" target="yURfG57xcYRF41rsmX7A-34" edge="1">
          <mxGeometry width="50" height="50" relative="1" as="geometry">
            <mxPoint x="206" y="113" as="sourcePoint" />
            <mxPoint x="186" y="90" as="targetPoint" />
            <Array as="points" />
          </mxGeometry>
        </mxCell>
        <mxCell id="yURfG57xcYRF41rsmX7A-25" value="" style="endArrow=classic;html=1;rounded=0;entryX=0.922;entryY=1.007;entryDx=0;entryDy=0;entryPerimeter=0;exitX=0.49;exitY=0.111;exitDx=0;exitDy=0;exitPerimeter=0;" parent="1" source="gvCiqMcnpfcGYAjsrZoF-17" target="yURfG57xcYRF41rsmX7A-34" edge="1">
          <mxGeometry width="50" height="50" relative="1" as="geometry">
            <mxPoint x="236" y="125" as="sourcePoint" />
            <mxPoint x="216" y="90" as="targetPoint" />
            <Array as="points" />
          </mxGeometry>
        </mxCell>
        <mxCell id="yURfG57xcYRF41rsmX7A-29" value="mem_req" style="text;html=1;align=right;verticalAlign=middle;whiteSpace=wrap;rounded=0;" parent="1" vertex="1">
          <mxGeometry x="15" y="55" width="80" height="20" as="geometry" />
        </mxCell>
        <mxCell id="yURfG57xcYRF41rsmX7A-30" value="mem_addr" style="text;html=1;align=right;verticalAlign=middle;whiteSpace=wrap;rounded=0;" parent="1" vertex="1">
          <mxGeometry x="15" y="40" width="80" height="20" as="geometry" />
        </mxCell>
        <mxCell id="yURfG57xcYRF41rsmX7A-31" value="mem_wdata" style="text;html=1;align=right;verticalAlign=middle;whiteSpace=wrap;rounded=0;" parent="1" vertex="1">
          <mxGeometry x="15" y="70" width="80" height="20" as="geometry" />
        </mxCell>
        <mxCell id="yURfG57xcYRF41rsmX7A-32" value="mem_req" style="text;html=1;align=left;verticalAlign=middle;whiteSpace=wrap;rounded=0;" parent="1" vertex="1">
          <mxGeometry x="166" y="55" width="80" height="20" as="geometry" />
        </mxCell>
        <mxCell id="yURfG57xcYRF41rsmX7A-33" value="mem_addr" style="text;html=1;align=left;verticalAlign=middle;whiteSpace=wrap;rounded=0;" parent="1" vertex="1">
          <mxGeometry x="166" y="40" width="80" height="20" as="geometry" />
        </mxCell>
        <mxCell id="yURfG57xcYRF41rsmX7A-34" value="mem_wdata" style="text;html=1;align=left;verticalAlign=middle;whiteSpace=wrap;rounded=0;" parent="1" vertex="1">
          <mxGeometry x="166" y="70" width="80" height="20" as="geometry" />
        </mxCell>
        <mxCell id="yURfG57xcYRF41rsmX7A-40" value="&lt;font style=&quot;font-size: 14px;&quot;&gt;+&lt;/font&gt;" style="ellipse;whiteSpace=wrap;html=1;aspect=fixed;" parent="1" vertex="1">
          <mxGeometry x="111" y="74" width="12" height="12" as="geometry" />
        </mxCell>
        <mxCell id="yURfG57xcYRF41rsmX7A-41" value="&lt;font style=&quot;font-size: 14px;&quot;&gt;+&lt;/font&gt;" style="ellipse;whiteSpace=wrap;html=1;aspect=fixed;" parent="1" vertex="1">
          <mxGeometry x="128" y="59" width="12" height="12" as="geometry" />
        </mxCell>
        <mxCell id="yURfG57xcYRF41rsmX7A-42" value="&lt;font style=&quot;font-size: 14px;&quot;&gt;+&lt;/font&gt;" style="ellipse;whiteSpace=wrap;html=1;aspect=fixed;" parent="1" vertex="1">
          <mxGeometry x="144" y="44" width="12" height="12" as="geometry" />
        </mxCell>
        <mxCell id="yURfG57xcYRF41rsmX7A-43" value="" style="endArrow=classic;html=1;rounded=0;exitX=1;exitY=0.5;exitDx=0;exitDy=0;entryX=0;entryY=0.5;entryDx=0;entryDy=0;" parent="1" source="yURfG57xcYRF41rsmX7A-31" target="yURfG57xcYRF41rsmX7A-40" edge="1">
          <mxGeometry width="50" height="50" relative="1" as="geometry">
            <mxPoint x="115" y="90" as="sourcePoint" />
            <mxPoint x="104" y="80" as="targetPoint" />
          </mxGeometry>
        </mxCell>
        <mxCell id="yURfG57xcYRF41rsmX7A-44" value="" style="endArrow=classic;html=1;rounded=0;entryX=1;entryY=0.5;entryDx=0;entryDy=0;exitX=0;exitY=0.5;exitDx=0;exitDy=0;" parent="1" source="yURfG57xcYRF41rsmX7A-32" target="yURfG57xcYRF41rsmX7A-41" edge="1">
          <mxGeometry width="50" height="50" relative="1" as="geometry">
            <mxPoint x="120" y="90" as="sourcePoint" />
            <mxPoint x="170" y="40" as="targetPoint" />
          </mxGeometry>
        </mxCell>
        <mxCell id="yURfG57xcYRF41rsmX7A-45" value="" style="endArrow=classic;html=1;rounded=0;entryX=1;entryY=0.5;entryDx=0;entryDy=0;exitX=0;exitY=0.5;exitDx=0;exitDy=0;" parent="1" source="yURfG57xcYRF41rsmX7A-33" target="yURfG57xcYRF41rsmX7A-42" edge="1">
          <mxGeometry width="50" height="50" relative="1" as="geometry">
            <mxPoint x="100" y="90" as="sourcePoint" />
            <mxPoint x="150" y="40" as="targetPoint" />
          </mxGeometry>
        </mxCell>
        <mxCell id="yURfG57xcYRF41rsmX7A-46" value="" style="endArrow=classic;html=1;rounded=0;entryX=1;entryY=0.5;entryDx=0;entryDy=0;exitX=0;exitY=0.5;exitDx=0;exitDy=0;" parent="1" source="yURfG57xcYRF41rsmX7A-34" target="yURfG57xcYRF41rsmX7A-40" edge="1">
          <mxGeometry width="50" height="50" relative="1" as="geometry">
            <mxPoint x="100" y="90" as="sourcePoint" />
            <mxPoint x="150" y="40" as="targetPoint" />
          </mxGeometry>
        </mxCell>
        <mxCell id="yURfG57xcYRF41rsmX7A-47" value="" style="endArrow=classic;html=1;rounded=0;exitX=1;exitY=0.5;exitDx=0;exitDy=0;entryX=0;entryY=0.5;entryDx=0;entryDy=0;" parent="1" source="yURfG57xcYRF41rsmX7A-30" target="yURfG57xcYRF41rsmX7A-42" edge="1">
          <mxGeometry width="50" height="50" relative="1" as="geometry">
            <mxPoint x="100" y="90" as="sourcePoint" />
            <mxPoint x="150" y="40" as="targetPoint" />
          </mxGeometry>
        </mxCell>
        <mxCell id="yURfG57xcYRF41rsmX7A-51" value="" style="endArrow=classic;html=1;rounded=0;entryX=0;entryY=0.5;entryDx=0;entryDy=0;exitX=1;exitY=0.5;exitDx=0;exitDy=0;" parent="1" source="yURfG57xcYRF41rsmX7A-29" target="yURfG57xcYRF41rsmX7A-41" edge="1">
          <mxGeometry width="50" height="50" relative="1" as="geometry">
            <mxPoint x="140" y="90" as="sourcePoint" />
            <mxPoint x="190" y="40" as="targetPoint" />
          </mxGeometry>
        </mxCell>
        <mxCell id="yURfG57xcYRF41rsmX7A-55" value="" style="endArrow=classic;html=1;rounded=0;entryX=0.175;entryY=0.25;entryDx=0;entryDy=0;entryPerimeter=0;exitX=0.5;exitY=0;exitDx=0;exitDy=0;" parent="1" source="yURfG57xcYRF41rsmX7A-40" target="wwnYc5A1nhrkh_v58zpU-23" edge="1">
          <mxGeometry width="50" height="50" relative="1" as="geometry">
            <mxPoint x="160" y="100" as="sourcePoint" />
            <mxPoint x="286.5" y="43.5" as="targetPoint" />
            <Array as="points">
              <mxPoint x="117" y="25" />
              <mxPoint x="280" y="25" />
              <mxPoint x="280" y="66" />
              <mxPoint x="273" y="66" />
            </Array>
          </mxGeometry>
        </mxCell>
        <mxCell id="yURfG57xcYRF41rsmX7A-56" value="" style="endArrow=classic;html=1;rounded=0;exitX=0.5;exitY=0;exitDx=0;exitDy=0;entryX=0.175;entryY=0.25;entryDx=0;entryDy=0;entryPerimeter=0;" parent="1" source="yURfG57xcYRF41rsmX7A-41" target="wwnYc5A1nhrkh_v58zpU-20" edge="1">
          <mxGeometry width="50" height="50" relative="1" as="geometry">
            <mxPoint x="160" y="100" as="sourcePoint" />
            <mxPoint x="273.5" y="43.5" as="targetPoint" />
            <Array as="points">
              <mxPoint x="134" y="30" />
              <mxPoint x="267" y="30" />
            </Array>
          </mxGeometry>
        </mxCell>
        <mxCell id="yURfG57xcYRF41rsmX7A-64" value="" style="endArrow=classic;html=1;rounded=0;" parent="1" edge="1">
          <mxGeometry width="50" height="50" relative="1" as="geometry">
            <mxPoint x="260" y="60" as="sourcePoint" />
            <mxPoint x="260" y="60" as="targetPoint" />
          </mxGeometry>
        </mxCell>
        <mxCell id="yURfG57xcYRF41rsmX7A-75" value="mem_gnt" style="text;html=1;align=center;verticalAlign=middle;whiteSpace=wrap;rounded=0;" parent="1" vertex="1">
          <mxGeometry x="85" y="157" width="60" height="20" as="geometry" />
        </mxCell>
        <mxCell id="gvCiqMcnpfcGYAjsrZoF-2" value="" style="shape=trapezoid;perimeter=trapezoidPerimeter;whiteSpace=wrap;html=1;fixedSize=1;size=10;" parent="1" vertex="1">
          <mxGeometry x="155" y="101" width="40" height="10" as="geometry" />
        </mxCell>
        <mxCell id="gvCiqMcnpfcGYAjsrZoF-5" value="" style="shape=trapezoid;perimeter=trapezoidPerimeter;whiteSpace=wrap;html=1;fixedSize=1;size=10;" parent="1" vertex="1">
          <mxGeometry x="188" y="116" width="40" height="10" as="geometry" />
        </mxCell>
        <mxCell id="gvCiqMcnpfcGYAjsrZoF-6" value="" style="shape=trapezoid;perimeter=trapezoidPerimeter;whiteSpace=wrap;html=1;fixedSize=1;size=10;" parent="1" vertex="1">
          <mxGeometry x="220" y="133" width="40" height="10" as="geometry" />
        </mxCell>
        <mxCell id="gvCiqMcnpfcGYAjsrZoF-9" value="" style="endArrow=classic;html=1;rounded=0;entryX=0.75;entryY=1;entryDx=0;entryDy=0;" parent="1" edge="1">
          <mxGeometry width="50" height="50" relative="1" as="geometry">
            <mxPoint x="183" y="164" as="sourcePoint" />
            <mxPoint x="183" y="111" as="targetPoint" />
          </mxGeometry>
        </mxCell>
        <mxCell id="gvCiqMcnpfcGYAjsrZoF-10" value="" style="endArrow=classic;html=1;rounded=0;entryX=0.75;entryY=1;entryDx=0;entryDy=0;" parent="1" edge="1">
          <mxGeometry width="50" height="50" relative="1" as="geometry">
            <mxPoint x="216" y="164" as="sourcePoint" />
            <mxPoint x="215.83" y="126" as="targetPoint" />
          </mxGeometry>
        </mxCell>
        <mxCell id="gvCiqMcnpfcGYAjsrZoF-11" value="" style="endArrow=classic;html=1;rounded=0;entryX=0.75;entryY=1;entryDx=0;entryDy=0;" parent="1" edge="1">
          <mxGeometry width="50" height="50" relative="1" as="geometry">
            <mxPoint x="250" y="164" as="sourcePoint" />
            <mxPoint x="249.67000000000002" y="143" as="targetPoint" />
          </mxGeometry>
        </mxCell>
        <mxCell id="gvCiqMcnpfcGYAjsrZoF-14" value="unconstrained" style="text;html=1;align=center;verticalAlign=middle;whiteSpace=wrap;rounded=0;" parent="1" vertex="1">
          <mxGeometry x="186" y="160" width="60" height="20" as="geometry" />
        </mxCell>
        <mxCell id="gvCiqMcnpfcGYAjsrZoF-15" value="&lt;font style=&quot;font-size: 11px;&quot;&gt;0&amp;nbsp; &amp;nbsp;1&lt;/font&gt;" style="text;html=1;align=center;verticalAlign=middle;whiteSpace=wrap;rounded=0;" parent="1" vertex="1">
          <mxGeometry x="160.5" y="102" width="29" height="8" as="geometry" />
        </mxCell>
        <mxCell id="gvCiqMcnpfcGYAjsrZoF-16" value="&lt;font style=&quot;font-size: 11px;&quot;&gt;0&amp;nbsp; &amp;nbsp;1&lt;/font&gt;" style="text;html=1;align=center;verticalAlign=middle;whiteSpace=wrap;rounded=0;" parent="1" vertex="1">
          <mxGeometry x="191" y="116" width="34" height="10" as="geometry" />
        </mxCell>
        <mxCell id="gvCiqMcnpfcGYAjsrZoF-17" value="&lt;font style=&quot;font-size: 11px;&quot;&gt;0&amp;nbsp; &amp;nbsp;1&lt;/font&gt;" style="text;html=1;align=center;verticalAlign=middle;whiteSpace=wrap;rounded=0;" parent="1" vertex="1">
          <mxGeometry x="223" y="132" width="34" height="12" as="geometry" />
        </mxCell>
        <mxCell id="Cuzo3y2Mb3g4U55KmJzW-5" value="" style="endArrow=classic;html=1;rounded=0;entryX=0.25;entryY=1;entryDx=0;entryDy=0;" parent="1" edge="1">
          <mxGeometry width="50" height="50" relative="1" as="geometry">
            <mxPoint x="85" y="157" as="sourcePoint" />
            <mxPoint x="229" y="143" as="targetPoint" />
            <Array as="points">
              <mxPoint x="229" y="157" />
            </Array>
          </mxGeometry>
        </mxCell>
        <mxCell id="Cuzo3y2Mb3g4U55KmJzW-8" value="" style="ellipse;whiteSpace=wrap;html=1;aspect=fixed;fillColor=#000000;" parent="1" vertex="1">
          <mxGeometry x="24" y="122" width="2" height="2" as="geometry" />
        </mxCell>
        <mxCell id="Cuzo3y2Mb3g4U55KmJzW-9" value="" style="ellipse;whiteSpace=wrap;html=1;aspect=fixed;fillColor=#000000;" parent="1" vertex="1">
          <mxGeometry x="54" y="139" width="2" height="2" as="geometry" />
        </mxCell>
        <mxCell id="Cuzo3y2Mb3g4U55KmJzW-10" value="" style="ellipse;whiteSpace=wrap;html=1;aspect=fixed;fillColor=#000000;" parent="1" vertex="1">
          <mxGeometry x="84" y="156" width="2" height="2" as="geometry" />
        </mxCell>
        <mxCell id="wwnYc5A1nhrkh_v58zpU-2" value="&lt;font style=&quot;font-size: 11px;&quot;&gt;in periph_range&lt;/font&gt;" style="rounded=0;whiteSpace=wrap;html=1;" vertex="1" parent="1">
          <mxGeometry x="82" y="5" width="103" height="17" as="geometry" />
        </mxCell>
        <mxCell id="wwnYc5A1nhrkh_v58zpU-3" value="" style="endArrow=classic;html=1;rounded=0;entryX=0.176;entryY=1.049;entryDx=0;entryDy=0;entryPerimeter=0;" edge="1" parent="1">
          <mxGeometry width="50" height="50" relative="1" as="geometry">
            <mxPoint x="105" y="50" as="sourcePoint" />
            <mxPoint x="105.12799999999993" y="22.833000000000084" as="targetPoint" />
          </mxGeometry>
        </mxCell>
        <mxCell id="wwnYc5A1nhrkh_v58zpU-5" value="" style="shape=or;whiteSpace=wrap;html=1;" vertex="1" parent="1">
          <mxGeometry x="222" width="28" height="20" as="geometry" />
        </mxCell>
        <mxCell id="wwnYc5A1nhrkh_v58zpU-6" value="" style="endArrow=classic;html=1;rounded=0;entryX=0;entryY=0.25;entryDx=0;entryDy=0;entryPerimeter=0;" edge="1" parent="1" target="wwnYc5A1nhrkh_v58zpU-5">
          <mxGeometry width="50" height="50" relative="1" as="geometry">
            <mxPoint x="185" y="14" as="sourcePoint" />
            <mxPoint x="260" y="10" as="targetPoint" />
            <Array as="points">
              <mxPoint x="194" y="14" />
              <mxPoint x="194" y="5" />
            </Array>
          </mxGeometry>
        </mxCell>
        <mxCell id="wwnYc5A1nhrkh_v58zpU-7" value="" style="endArrow=classic;html=1;rounded=0;" edge="1" parent="1">
          <mxGeometry width="50" height="50" relative="1" as="geometry">
            <mxPoint x="243" y="11" as="sourcePoint" />
            <mxPoint x="243" y="11" as="targetPoint" />
          </mxGeometry>
        </mxCell>
        <mxCell id="wwnYc5A1nhrkh_v58zpU-8" value="" style="ellipse;whiteSpace=wrap;html=1;aspect=fixed;fillColor=#000000;" vertex="1" parent="1">
          <mxGeometry x="209" y="24" width="2" height="2" as="geometry" />
        </mxCell>
        <mxCell id="wwnYc5A1nhrkh_v58zpU-9" value="" style="endArrow=classic;html=1;rounded=0;entryX=0;entryY=0.75;entryDx=0;entryDy=0;entryPerimeter=0;" edge="1" parent="1" target="wwnYc5A1nhrkh_v58zpU-5">
          <mxGeometry width="50" height="50" relative="1" as="geometry">
            <mxPoint x="210" y="25" as="sourcePoint" />
            <mxPoint x="220" y="-10" as="targetPoint" />
            <Array as="points">
              <mxPoint x="210" y="15" />
            </Array>
          </mxGeometry>
        </mxCell>
        <mxCell id="wwnYc5A1nhrkh_v58zpU-12" value="&lt;font style=&quot;font-size: 11px;&quot;&gt;AND&lt;/font&gt;" style="text;html=1;align=center;verticalAlign=middle;whiteSpace=wrap;rounded=0;" vertex="1" parent="1">
          <mxGeometry x="228" width="15" height="20" as="geometry" />
        </mxCell>
        <mxCell id="wwnYc5A1nhrkh_v58zpU-15" value="$$\infty$$" style="rounded=0;whiteSpace=wrap;html=1;" vertex="1" parent="1">
          <mxGeometry x="214" y="99" width="16" height="14" as="geometry" />
        </mxCell>
        <mxCell id="wwnYc5A1nhrkh_v58zpU-17" value="" style="ellipse;whiteSpace=wrap;html=1;aspect=fixed;fillColor=#000000;" vertex="1" parent="1">
          <mxGeometry x="261" y="69" width="2" height="2" as="geometry" />
        </mxCell>
        <mxCell id="wwnYc5A1nhrkh_v58zpU-18" value="" style="ellipse;whiteSpace=wrap;html=1;aspect=fixed;fillColor=#000000;" vertex="1" parent="1">
          <mxGeometry x="104" y="49" width="2" height="2" as="geometry" />
        </mxCell>
        <mxCell id="wwnYc5A1nhrkh_v58zpU-20" value="" style="shape=xor;whiteSpace=wrap;html=1;rotation=90;" vertex="1" parent="1">
          <mxGeometry x="252" y="42" width="20" height="22" as="geometry" />
        </mxCell>
        <mxCell id="wwnYc5A1nhrkh_v58zpU-22" value="" style="endArrow=classic;html=1;rounded=0;exitX=0.5;exitY=0;exitDx=0;exitDy=0;entryX=0.175;entryY=0.75;entryDx=0;entryDy=0;entryPerimeter=0;" edge="1" parent="1" source="yURfG57xcYRF41rsmX7A-42" target="wwnYc5A1nhrkh_v58zpU-20">
          <mxGeometry width="50" height="50" relative="1" as="geometry">
            <mxPoint x="190" y="80" as="sourcePoint" />
            <mxPoint x="240" y="30" as="targetPoint" />
            <Array as="points">
              <mxPoint x="150" y="35" />
              <mxPoint x="257" y="35" />
            </Array>
          </mxGeometry>
        </mxCell>
        <mxCell id="wwnYc5A1nhrkh_v58zpU-23" value="" style="shape=xor;whiteSpace=wrap;html=1;rotation=90;" vertex="1" parent="1">
          <mxGeometry x="257" y="76" width="20" height="22" as="geometry" />
        </mxCell>
        <mxCell id="wwnYc5A1nhrkh_v58zpU-24" value="" style="shape=xor;whiteSpace=wrap;html=1;rotation=90;" vertex="1" parent="1">
          <mxGeometry x="283" y="77" width="20" height="22" as="geometry" />
        </mxCell>
        <mxCell id="wwnYc5A1nhrkh_v58zpU-25" value="" style="endArrow=classic;html=1;rounded=0;exitX=1;exitY=0.5;exitDx=0;exitDy=0;exitPerimeter=0;entryX=0.175;entryY=0.75;entryDx=0;entryDy=0;entryPerimeter=0;" edge="1" parent="1" source="wwnYc5A1nhrkh_v58zpU-20" target="wwnYc5A1nhrkh_v58zpU-23">
          <mxGeometry width="50" height="50" relative="1" as="geometry">
            <mxPoint x="240" y="90" as="sourcePoint" />
            <mxPoint x="290" y="40" as="targetPoint" />
          </mxGeometry>
        </mxCell>
        <mxCell id="wwnYc5A1nhrkh_v58zpU-26" value="" style="endArrow=classic;html=1;rounded=0;entryX=0.175;entryY=0.75;entryDx=0;entryDy=0;entryPerimeter=0;" edge="1" parent="1" target="wwnYc5A1nhrkh_v58zpU-24">
          <mxGeometry width="50" height="50" relative="1" as="geometry">
            <mxPoint x="262" y="70" as="sourcePoint" />
            <mxPoint x="290" y="40" as="targetPoint" />
            <Array as="points">
              <mxPoint x="287" y="70" />
            </Array>
          </mxGeometry>
        </mxCell>
        <mxCell id="wwnYc5A1nhrkh_v58zpU-27" value="" style="endArrow=classic;html=1;rounded=0;entryX=0.175;entryY=0.25;entryDx=0;entryDy=0;entryPerimeter=0;exitX=1;exitY=0.5;exitDx=0;exitDy=0;exitPerimeter=0;" edge="1" parent="1" source="wwnYc5A1nhrkh_v58zpU-5" target="wwnYc5A1nhrkh_v58zpU-24">
          <mxGeometry width="50" height="50" relative="1" as="geometry">
            <mxPoint x="250" y="80" as="sourcePoint" />
            <mxPoint x="300" y="30" as="targetPoint" />
            <Array as="points">
              <mxPoint x="299" y="10" />
            </Array>
          </mxGeometry>
        </mxCell>
        <mxCell id="wwnYc5A1nhrkh_v58zpU-28" value="" style="endArrow=classic;html=1;rounded=0;entryX=1;entryY=0.5;entryDx=0;entryDy=0;exitX=0;exitY=0.5;exitDx=0;exitDy=0;" edge="1" parent="1" source="wwnYc5A1nhrkh_v58zpU-15" target="gvCiqMcnpfcGYAjsrZoF-2">
          <mxGeometry width="50" height="50" relative="1" as="geometry">
            <mxPoint x="191" y="139.5" as="sourcePoint" />
            <mxPoint x="199" y="106.5" as="targetPoint" />
          </mxGeometry>
        </mxCell>
        <mxCell id="wwnYc5A1nhrkh_v58zpU-29" value="" style="endArrow=classic;html=1;rounded=0;entryX=1;entryY=0.5;entryDx=0;entryDy=0;exitX=1;exitY=0.5;exitDx=0;exitDy=0;exitPerimeter=0;" edge="1" parent="1" source="wwnYc5A1nhrkh_v58zpU-23" target="wwnYc5A1nhrkh_v58zpU-15">
          <mxGeometry width="50" height="50" relative="1" as="geometry">
            <mxPoint x="266" y="100" as="sourcePoint" />
            <mxPoint x="240" y="100" as="targetPoint" />
            <Array as="points">
              <mxPoint x="267" y="106" />
            </Array>
          </mxGeometry>
        </mxCell>
        <mxCell id="wwnYc5A1nhrkh_v58zpU-30" value="$$\infty$$" style="rounded=0;whiteSpace=wrap;html=1;" vertex="1" parent="1">
          <mxGeometry x="285" y="113" width="16" height="14" as="geometry" />
        </mxCell>
        <mxCell id="wwnYc5A1nhrkh_v58zpU-31" value="" style="endArrow=classic;html=1;rounded=0;exitX=1;exitY=0.5;exitDx=0;exitDy=0;exitPerimeter=0;entryX=0.5;entryY=0;entryDx=0;entryDy=0;" edge="1" parent="1" source="wwnYc5A1nhrkh_v58zpU-24" target="wwnYc5A1nhrkh_v58zpU-30">
          <mxGeometry width="50" height="50" relative="1" as="geometry">
            <mxPoint x="230" y="110" as="sourcePoint" />
            <mxPoint x="280" y="60" as="targetPoint" />
          </mxGeometry>
        </mxCell>
        <mxCell id="wwnYc5A1nhrkh_v58zpU-32" value="" style="endArrow=classic;html=1;rounded=0;exitX=0;exitY=0.5;exitDx=0;exitDy=0;" edge="1" parent="1" source="wwnYc5A1nhrkh_v58zpU-30">
          <mxGeometry width="50" height="50" relative="1" as="geometry">
            <mxPoint x="230" y="110" as="sourcePoint" />
            <mxPoint x="221" y="120" as="targetPoint" />
          </mxGeometry>
        </mxCell>
        <mxCell id="wwnYc5A1nhrkh_v58zpU-33" value="" style="ellipse;whiteSpace=wrap;html=1;aspect=fixed;fillColor=#000000;" vertex="1" parent="1">
          <mxGeometry x="275" y="119" width="2" height="2" as="geometry" />
        </mxCell>
        <mxCell id="wwnYc5A1nhrkh_v58zpU-35" value="" style="endArrow=classic;html=1;rounded=0;exitX=0.5;exitY=1;exitDx=0;exitDy=0;entryX=1;entryY=0.5;entryDx=0;entryDy=0;" edge="1" parent="1" source="wwnYc5A1nhrkh_v58zpU-33" target="gvCiqMcnpfcGYAjsrZoF-6">
          <mxGeometry width="50" height="50" relative="1" as="geometry">
            <mxPoint x="230" y="160" as="sourcePoint" />
            <mxPoint x="270" y="130" as="targetPoint" />
            <Array as="points">
              <mxPoint x="276" y="138" />
            </Array>
          </mxGeometry>
        </mxCell>
        <mxCell id="gvCiqMcnpfcGYAjsrZoF-13" value="&lt;font style=&quot;font-size: 11px;&quot;&gt;OR&lt;/font&gt;" style="text;html=1;align=center;verticalAlign=middle;whiteSpace=wrap;rounded=0;" parent="1" vertex="1">
          <mxGeometry x="254.5" y="48" width="15" height="12" as="geometry" />
        </mxCell>
        <mxCell id="wwnYc5A1nhrkh_v58zpU-37" value="&lt;font style=&quot;font-size: 11px;&quot;&gt;OR&lt;/font&gt;" style="text;html=1;align=center;verticalAlign=middle;whiteSpace=wrap;rounded=0;" vertex="1" parent="1">
          <mxGeometry x="259.5" y="82" width="15" height="12" as="geometry" />
        </mxCell>
        <mxCell id="wwnYc5A1nhrkh_v58zpU-38" value="&lt;font style=&quot;font-size: 11px;&quot;&gt;OR&lt;/font&gt;" style="text;html=1;align=center;verticalAlign=middle;whiteSpace=wrap;rounded=0;" vertex="1" parent="1">
          <mxGeometry x="285" y="82" width="15" height="12" as="geometry" />
        </mxCell>
      </root>
    </mxGraphModel>
  </diagram>
</mxfile>
